<?xml version="1.0" standalone="no"?>
<!DOCTYPE svg PUBLIC "-//W3C//DTD SVG 20010904//EN"
 "http://www.w3.org/TR/2001/REC-SVG-20010904/DTD/svg10.dtd">
<svg version="1.0" xmlns="http://www.w3.org/2000/svg"
 width='2030' height='100' viewBox='100 0 1250 684' size='1000px'
 preserveAspectRatio="xMidYMid meet">

<g transform="translate(200,1300) scale(0.100000,-0.100000)"
fill="#5CE1E6" stroke="none">
<path d="M4602 16149 c-359 -34 -663 -305 -739 -659 -17 -82 -18 -295 -18
-5500 l0 -5415 26 -96 c48 -170 126 -298 256 -418 132 -122 296 -192 491 -211
143 -13 5468 -13 5607 0 208 20 363 91 514 234 115 110 204 270 238 426 17 82
18 295 18 5485 0 4420 -2 5413 -13 5470 -62 325 -282 571 -592 659 -30 9 -98
20 -150 26 -115 12 -5513 11 -5638 -1z m3753 -615 c13 -9 29 -31 35 -49 14
-43 -9 -98 -48 -114 -19 -8 -286 -11 -929 -9 l-901 3 -26 24 c-21 20 -26 34
-26 72 0 39 4 51 26 68 27 21 31 21 936 21 812 0 911 -2 933 -16z m2065 -5424
l0 -4730 -2995 0 -2995 0 0 4730 0 4730 2995 0 2995 0 0 -4730z m-2865 -5057
c182 -64 305 -263 275 -446 -34 -210 -211 -355 -424 -346 -155 7 -285 97 -353
245 -35 78 -43 197 -18 275 72 223 308 347 520 272z"/>
<path d="M5344 11959 c-41 -12 -91 -69 -100 -114 -8 -46 2 -97 26 -127 32 -42
79 -48 348 -48 l250 0 6 -25 c61 -242 661 -2396 673 -2419 10 -17 38 -41 63
-53 l44 -23 1036 0 c1137 1 1089 -2 1143 62 18 20 175 370 409 907 315 724
379 879 374 905 -10 49 -42 94 -85 116 -40 20 -52 20 -1201 20 -1277 0 -1203
4 -1254 -62 -22 -30 -26 -45 -26 -101 0 -56 4 -70 26 -97 59 -70 -22 -65 1101
-65 556 0 1014 -3 1017 -6 3 -3 -128 -314 -292 -690 l-298 -684 -904 0 -903 0
-332 1210 c-182 666 -339 1222 -348 1236 -9 14 -34 35 -56 47 -38 21 -47 22
-362 21 -178 0 -338 -5 -355 -10z"/>
<path d="M6450 8747 c-108 -24 -198 -94 -255 -197 -28 -51 -30 -62 -30 -160 0
-92 3 -111 25 -155 58 -117 185 -204 309 -213 91 -6 158 11 226 59 69 48 96
79 131 148 33 64 44 184 24 257 -51 181 -249 301 -430 261z"/>
<path d="M8734 8743 c-185 -42 -308 -227 -276 -412 6 -35 21 -83 33 -108 31
-63 109 -140 176 -171 50 -23 71 -27 153 -27 87 0 101 3 162 33 268 131 275
512 11 654 -66 36 -177 49 -259 31z"/>
</g>
</svg>
